<svg enable-background="new 0 0 128 128" viewBox="0 0 128 128" xmlns="http://www.w3.org/2000/svg" xmlns:xlink="http://www.w3.org/1999/xlink"><linearGradient id="lg1"><stop offset="0" stop-color="#fef156"/><stop offset=".4469" stop-color="#ffc242"/><stop offset="1" stop-color="#fc753f"/></linearGradient><linearGradient id="SVGID_1_" gradientUnits="userSpaceOnUse" x1="82.887" x2="82.887" xlink:href="#lg1" y1="2" y2="126"/><linearGradient id="SVGID_00000156574324914655442650000005058820272471681697_" gradientUnits="userSpaceOnUse" x1="138.778" x2="77.387" y1="138.783" y2="77.392"><stop offset=".6875" stop-color="#f99e0d" stop-opacity="0"/><stop offset=".7327" stop-color="#f49020" stop-opacity=".078"/><stop offset=".8234" stop-color="#e86d50" stop-opacity=".233"/><stop offset=".8622" stop-color="#e25d66" stop-opacity=".3"/></linearGradient><linearGradient id="lg2"><stop offset="0" stop-color="#a4eeff"/><stop offset=".7319" stop-color="#02c0fc"/><stop offset="1" stop-color="#27a6ff"/></linearGradient><linearGradient id="SVGID_00000010310794303841084400000007624894005285671334_" gradientUnits="userSpaceOnUse" x1="34" x2="34" xlink:href="#lg2" y1="2" y2="126"/><linearGradient id="SVGID_00000123406716774618815580000002177802853444961933_" gradientUnits="userSpaceOnUse" x1="95.615" x2="49.171" y1="120.33" y2="73.886"><stop offset=".2613" stop-color="#a4eeff" stop-opacity="0"/><stop offset=".2961" stop-color="#66caff" stop-opacity=".508"/><stop offset=".3297" stop-color="#27a6ff"/></linearGradient><linearGradient id="SVGID_00000034062460427248075960000002013346997483027584_" gradientUnits="userSpaceOnUse" x1="82.143" x2="82.143" xlink:href="#lg1" y1="6.42" y2="20.7"/><linearGradient id="SVGID_00000090975154723626865140000002206397274167004859_" gradientUnits="userSpaceOnUse" x1="45.858" x2="45.858" xlink:href="#lg2" y1="6.42" y2="20.7"/><linearGradient id="SVGID_00000145023084853558025850000008541710912099123129_" gradientUnits="userSpaceOnUse" x1="32.743" x2="95.258" y1="64.001" y2="64.001"><stop offset=".00000011188" stop-color="#a47af4"/><stop offset=".4469" stop-color="#8954dd"/><stop offset="1" stop-color="#6936ba"/></linearGradient><g id="Layer_1"/><g id="Generate_Text"/><g id="Generate_Image"/><g id="View"/><g id="Robot_Arm"/><g id="Chat_Bot"/><g id="Generate_Video"/><g id="Network"/><g id="Protection"/><g id="Smartwatch"/><g id="Smarthome"/><g id="Smart_car"/><g id="VR"/><g id="Eye"/><g id="Smart_Eyeglass"/><g id="Brain"/><g id="Robot"/><g id="Holographic"/><g id="Ai"/><g id="Chip"/><g id="Brain_AI"><g><path d="m124 73c0 .45-.01.9-.05 1.34-.57 8.71-6.75 16.01-15.12 18.07-.58 4.05-2.6 7.69-5.57 10.31-1.53 1.36-3.3 2.45-5.26 3.19v.09c0 6.04-4.48 11.05-10.29 11.88-.97 2.09-2.42 3.87-4.21 5.24-2.05 1.56-4.53 2.57-7.18 2.81-.43.05-.87.07-1.32.07-4.46 0-8.43-2.11-11-5.37-6.44-7.26-11.22-14.52-14.65-21.67-2.47-5.1-4.24-10.14-5.45-15.08-10.29-41.94 20.1-76.51 20.1-76.51 2.57-3.26 6.54-5.37 11-5.37 4.05 0 7.69 1.69 10.23 4.42 1.38 1.46 2.43 3.21 3.07 5.16 1.52-.38 3.09-.58 4.7-.58 10.48 0 19 8.52 19 19 0 .79-.05 1.58-.14 2.35 6.68 2.72 11.14 9.21 11.14 16.65 0 4.02-1.35 7.9-3.78 11.03 3.07 3.59 4.78 8.18 4.78 12.97z" fill="url(#SVGID_1_)"/><path d="m123.95 74.34c-.57 8.71-6.75 16.01-15.12 18.07-.58 4.05-2.6 7.69-5.57 10.31-1.53 1.36-3.3 2.45-5.26 3.19v.09c0 6.04-4.48 11.05-10.29 11.88-.97 2.09-2.42 3.87-4.21 5.24-2.05 1.56-4.53 2.57-7.18 2.81l-26.97-26.97-10.27-10.26 4.82-4.82 44.82-44.77z" fill="url(#SVGID_00000156574324914655442650000005058820272471681697_)"/><path d="m64 7.37v113.26c-.26.33-.53.64-.82.94-.14.16-.29.3-.44.45-.14.14-.3.28-.45.42-.16.14-.32.27-.48.4-.47.39-.98.74-1.5 1.06-.01.01-.02.01-.03.02-2.13 1.32-4.62 2.08-7.28 2.08-5.5 0-10.45-3.25-12.71-8.12-5.81-.83-10.29-5.84-10.29-11.88v-.09c-5.77-2.18-9.95-7.37-10.83-13.5-8.8-2.17-15.17-10.12-15.17-19.41 0-4.79 1.71-9.38 4.78-12.97-2.43-3.13-3.78-7.01-3.78-11.03 0-7.44 4.46-13.93 11.14-16.65-.09-.77-.14-1.56-.14-2.35 0-9.56 7.08-17.48 16.28-18.8.89-.13 1.8-.2 2.72-.2 1.61 0 3.18.2 4.7.58 1.84-5.6 7.09-9.58 13.3-9.58 4.46 0 8.43 2.11 11 5.37z" fill="url(#SVGID_00000010310794303841084400000007624894005285671334_)"/><path d="m64 63.81v49.8l-24.92-24.91z" fill="url(#SVGID_00000123406716774618815580000002177802853444961933_)"/><path d="m88.3 11.58c-3.02 1.47-5.33 4.02-6.5 7.16-.45 1.21-1.6 1.96-2.82 1.96-.34 0-.7-.06-1.04-.19-1.55-.58-2.34-2.31-1.77-3.86 1.65-4.45 4.87-8.06 9.06-10.23 1.38 1.46 2.43 3.21 3.07 5.16z" fill="url(#SVGID_00000034062460427248075960000002013346997483027584_)"/><path d="m103.26 102.72c-1.53 1.36-3.3 2.45-5.26 3.19-.22-.98-.7-1.9-1.38-2.66-1.1-1.24-1-3.13.24-4.24 1.23-1.1 3.13-1 4.23.23.92 1.03 1.66 2.21 2.17 3.48z" fill="#fcaa1a"/><path d="m87.71 117.88c-.97 2.09-2.42 3.87-4.21 5.24-.86-.32-1.68-.74-2.46-1.26-1.38-.92-1.74-2.79-.82-4.17.92-1.37 2.78-1.74 4.16-.82.98.66 2.14 1.01 3.33 1.01z" fill="#fcaa1a"/><path d="m39.7 11.58c3.02 1.47 5.33 4.02 6.5 7.16.45 1.21 1.6 1.96 2.82 1.96.34 0 .7-.06 1.04-.19 1.55-.58 2.34-2.31 1.77-3.86-1.65-4.45-4.87-8.06-9.06-10.23-1.38 1.46-2.43 3.21-3.07 5.16z" fill="url(#SVGID_00000090975154723626865140000002206397274167004859_)"/><path d="m24.74 102.72c1.53 1.36 3.3 2.45 5.26 3.19.22-.98.7-1.9 1.38-2.66 1.1-1.24 1-3.13-.24-4.24-1.23-1.1-3.13-1-4.23.23-.92 1.03-1.66 2.21-2.17 3.48z" fill="#10a0f9"/><path d="m40.29 117.88c.97 2.09 2.42 3.87 4.21 5.24.86-.32 1.68-.74 2.46-1.26 1.38-.92 1.74-2.79.82-4.17-.92-1.37-2.78-1.74-4.16-.82-.98.66-2.14 1.01-3.33 1.01z" fill="#10a0f9"/><path d="m90.69 86.03c-.91 2.1-2.56 3.75-4.66 4.66-7 3.05-14.52 4.57-22.03 4.57-7.52 0-15.03-1.52-22.03-4.57-2.1-.91-3.75-2.56-4.66-4.66-6.09-14-6.09-30.06 0-44.06.91-2.1 2.56-3.75 4.66-4.66 14-6.09 30.06-6.09 44.06 0 2.1.91 3.75 2.56 4.66 4.66 6.09 14 6.09 30.06 0 44.06z" fill="url(#SVGID_00000145023084853558025850000008541710912099123129_)"/><g fill="#fff"><path d="m59.819 51.975c-.431-1.186-1.557-1.975-2.819-1.975s-2.388.789-2.819 1.975l-8 22c-.566 1.557.237 3.278 1.794 3.845 1.554.565 3.278-.237 3.845-1.794l.736-2.026h8.888l.737 2.025c.443 1.219 1.594 1.976 2.819 1.976.34 0 .687-.059 1.025-.182 1.557-.566 2.36-2.288 1.794-3.845zm-5.081 16.025 2.262-6.222 2.262 6.222z"/><path d="m77 50c-1.657 0-3 1.343-3 3v22c0 1.657 1.343 3 3 3s3-1.343 3-3v-22c0-1.657-1.343-3-3-3z"/></g></g></g><g id="Layer_22" display="none"/></svg>