<svg xmlns="http://www.w3.org/2000/svg" xmlns:xlink="http://www.w3.org/1999/xlink" clip-rule="evenodd" fill-rule="evenodd" height="512" image-rendering="optimizeQuality" shape-rendering="geometricPrecision" text-rendering="geometricPrecision" viewBox="0 0 2.83333 2.83333" width="512"><linearGradient id="id0" gradientUnits="userSpaceOnUse" x1="1.417" x2="1.417" y1="2.833" y2="0"><stop offset="0" stop-color="#262261"></stop><stop offset=".0117647" stop-color="#262261"></stop><stop offset=".0196078" stop-color="#262261"></stop><stop offset=".0313725" stop-color="#262261"></stop><stop offset=".0392157" stop-color="#262261"></stop><stop offset=".0509804" stop-color="#262261"></stop><stop offset=".0588235" stop-color="#292363"></stop><stop offset=".0705882" stop-color="#2c2365"></stop><stop offset=".0784314" stop-color="#2f2468"></stop><stop offset=".0901961" stop-color="#32246a"></stop><stop offset=".101961" stop-color="#35256c"></stop><stop offset=".109804" stop-color="#37256e"></stop><stop offset=".121569" stop-color="#3a2670"></stop><stop offset=".129412" stop-color="#3d2672"></stop><stop offset=".141176" stop-color="#3f2774"></stop><stop offset=".14902" stop-color="#422776"></stop><stop offset=".160784" stop-color="#442777"></stop><stop offset=".168627" stop-color="#462879"></stop><stop offset=".180392" stop-color="#48287a"></stop><stop offset=".188235" stop-color="#4a287c"></stop><stop offset=".2" stop-color="#4c297d"></stop><stop offset=".211765" stop-color="#4e297f"></stop><stop offset=".219608" stop-color="#502980"></stop><stop offset=".231373" stop-color="#512981"></stop><stop offset=".239216" stop-color="#532a83"></stop><stop offset=".25098" stop-color="#552a84"></stop><stop offset=".258824" stop-color="#562a85"></stop><stop offset=".270588" stop-color="#582a86"></stop><stop offset=".278431" stop-color="#592b87"></stop><stop offset=".290196" stop-color="#5a2b88"></stop><stop offset=".301961" stop-color="#5b2b89"></stop><stop offset=".309804" stop-color="#5c2b8a"></stop><stop offset=".321569" stop-color="#5e2b8a"></stop><stop offset=".329412" stop-color="#5f2c8b"></stop><stop offset=".341176" stop-color="#602c8c"></stop><stop offset=".34902" stop-color="#612c8d"></stop><stop offset=".360784" stop-color="#612c8d"></stop><stop offset=".368627" stop-color="#622c8e"></stop><stop offset=".380392" stop-color="#622c8e"></stop><stop offset=".388235" stop-color="#632c8e"></stop><stop offset=".4" stop-color="#632d8f"></stop><stop offset=".411765" stop-color="#632d8f"></stop><stop offset=".419608" stop-color="#642d8f"></stop><stop offset=".431373" stop-color="#642d8f"></stop><stop offset=".439216" stop-color="#652d90"></stop><stop offset=".45098" stop-color="#652d90"></stop><stop offset=".458824" stop-color="#672d90"></stop><stop offset=".470588" stop-color="#682d90"></stop><stop offset=".478431" stop-color="#6a2c90"></stop><stop offset=".490196" stop-color="#6b2c90"></stop><stop offset=".501961" stop-color="#6d2c90"></stop><stop offset=".509804" stop-color="#6e2c90"></stop><stop offset=".521569" stop-color="#702c90"></stop><stop offset=".529412" stop-color="#712b90"></stop><stop offset=".541176" stop-color="#722b90"></stop><stop offset=".54902" stop-color="#732b90"></stop><stop offset=".560784" stop-color="#752b90"></stop><stop offset=".568627" stop-color="#762b90"></stop><stop offset=".580392" stop-color="#772a8f"></stop><stop offset=".588235" stop-color="#782a8f"></stop><stop offset=".6" stop-color="#792a8f"></stop><stop offset=".611765" stop-color="#7a2a8f"></stop><stop offset=".619608" stop-color="#7c2a8f"></stop><stop offset=".631373" stop-color="#7d2a8f"></stop><stop offset=".639216" stop-color="#7e298f"></stop><stop offset=".65098" stop-color="#7f298f"></stop><stop offset=".658824" stop-color="#80298f"></stop><stop offset=".670588" stop-color="#81298f"></stop><stop offset=".678431" stop-color="#82298f"></stop><stop offset=".690196" stop-color="#82298f"></stop><stop offset=".701961" stop-color="#83298f"></stop><stop offset=".709804" stop-color="#84298f"></stop><stop offset=".721569" stop-color="#85298f"></stop><stop offset=".729412" stop-color="#85298f"></stop><stop offset=".741176" stop-color="#86288e"></stop><stop offset=".74902" stop-color="#87288e"></stop><stop offset=".760784" stop-color="#87288e"></stop><stop offset=".768627" stop-color="#88288e"></stop><stop offset=".780392" stop-color="#89288e"></stop><stop offset=".788235" stop-color="#89288e"></stop><stop offset=".8" stop-color="#8a288e"></stop><stop offset=".811765" stop-color="#8b288e"></stop><stop offset=".819608" stop-color="#8b288e"></stop><stop offset=".831373" stop-color="#8c288e"></stop><stop offset=".839216" stop-color="#8c288e"></stop><stop offset=".85098" stop-color="#8d288e"></stop><stop offset=".858824" stop-color="#8d288e"></stop><stop offset=".870588" stop-color="#8d288e"></stop><stop offset=".878431" stop-color="#8d288e"></stop><stop offset=".890196" stop-color="#8e288e"></stop><stop offset=".901961" stop-color="#8e288e"></stop><stop offset=".909804" stop-color="#8e278e"></stop><stop offset=".921569" stop-color="#8e278e"></stop><stop offset=".929412" stop-color="#8e278e"></stop><stop offset=".941176" stop-color="#8f278e"></stop><stop offset=".94902" stop-color="#8f278e"></stop><stop offset=".960784" stop-color="#8f278e"></stop><stop offset=".968627" stop-color="#8f278e"></stop><stop offset=".980392" stop-color="#90278e"></stop><stop offset=".988235" stop-color="#90278e"></stop><stop offset="1" stop-color="#90278e"></stop></linearGradient><g id="Layer_x0020_1"><path d="m2.83333 1.41667c0-.782406-.63426-1.41667-1.41667-1.41667-.782406 0-1.41667.63426-1.41667 1.41667 0 .782406.63426 1.41667 1.41667 1.41667.782406 0 1.41667-.63426 1.41667-1.41667z" fill="url(#id0)"></path><g id="_690828240"><g><g><g><path id="_273560384" d="m1.41597 2.14823c-.00416142 0-.00832283-.00138583-.0124803-.00277165l-.453508-.262118c-.00693701-.00415748-.0124803-.0124764-.0124803-.0208031l-.00000394-.522843c0-.00832283.00416142-.0166457.0124803-.0208071l.453504-.262114c.00693701-.00416142.0166417-.00416142.0235748 0l.454894.260732c.00693701.00416142.0124803.0124803.0124803.0208031v.522846c0 .0083189-.00415748.0166417-.0124803.0208031l-.4535.2635c-.00416142.00138976-.00832283.00277165-.0124803.00277165zm-.428543-.299559.428539.248248.428539-.248248.00000394-.49511-.428539-.248244-.428543.248244v.49511z" fill="#fff"></path></g><g><g><g><path id="_273560576" d="m1.40765 1.74605c-.00970472 0-.0180276-.00554724-.022189-.0152559l-.0762795-.187228-.0762795.187228c-.00554724.0124803-.0194173.0180276-.0318976.0138661-.0124803-.00554724-.0180315-.0194134-.0138701-.0318976l.0984764-.242697c.00415748-.00970866.0124803-.0152559.022189-.0152559.0097126 0 .0194173.00554724.0221929.0152559l.0984685.242701c.00554724.0124803-.00138976.0263504-.0138701.0318976-.00138976-.00000394-.00416142.00138583-.00694094.00138583z" fill="#fff"></path></g><g><path id="_273560552" d="m1.37298 1.66283h-.130362c-.0138701 0-.0249646-.0110945-.0249646-.0249646 0-.0138661.0110945-.0249606.0249646-.0249606h.130362c.0138661 0 .0249646.0110945.0249646.0249606 0 .0138701-.0110945.0249646-.0249646.0249646z" fill="#fff"></path></g></g><g><g><path id="_273560528" d="m1.624 1.50335h-.144232c-.0138701 0-.0249646-.0110984-.0249646-.0249646 0-.0138701.0110945-.0249646.0249646-.0249646h.144232c.0138701 0 .0249646.0110945.0249646.0249646 0 .0138661-.0124843.0249646-.0249646.0249646z" fill="#fff"></path></g><g><path id="_273560432" d="m1.624 1.74605h-.144232c-.0138701 0-.0249646-.0110984-.0249646-.0249646 0-.0138661.0110945-.0249646.0249646-.0249646h.144232c.0138701 0 .0249646.0110984.0249646.0249646 0 .0138661-.0124843.0249646-.0249646.0249646z" fill="#fff"></path></g><g><path id="_273560336" d="m1.55188 1.74605c-.0138661 0-.0249646-.0110984-.0249646-.0249646l.00138976-.242701c0-.0138701.0110945-.0235748.0249646-.0235748.0138661 0 .0235748.0110945.0235748.0249606l-.00138976.242701c0 .0124803-.00970866.0235787-.0235748.0235787z" fill="#fff"></path></g></g></g><g><path id="_273560504" d="m1.08035 1.29531c-.0083189 0-.0166417-.00415748-.0208031-.0124803-.0208031-.0360591-.0360591-.0748898-.0457677-.116492l-.0832087-.00000394c-.0138701 0-.0249646-.0110984-.0249646-.0249646v-.130366c0-.0138661.0110945-.0249646.0249646-.0249646l.0832087.00000394c.0110945-.0471496.029126-.0915315.0540866-.131748l-.0582441-.058248c-.00416142-.00416142-.00693701-.0110984-.00693701-.0166457 0-.00693307.00277165-.0124803.00693701-.0166417l.0929173-.0915315c.00970866-.00970866.0249646-.00970866.0346732 0l.0582441.058248c.0416102-.0263543.0859882-.0443819.131752-.0540866l.00000394-.0832165c0-.0138661.0110945-.0249646.0249646-.0249646h.130362c.0138661 0 .0249646.0110984.0249646.0249646v.0818228c.0471496.0110945.0929173.029122.133138.0540866l.058248-.058248c.00970472-.00970472.0249606-.00970472.0346693 0l.0915315.0915315c.00970866.00970866.00970866.0249646 0 .0346732l-.0610197.0596378c.0263504.0388307.0443819.0845984.0554764.131752h.0818228c.0138661 0 .0249646.0110945.0249646.0249606v.13037c0 .0138661-.0110984.0249606-.0249646.0249606h-.0818228c-.00970866.0416102-.0249646.0804409-.0457677.116496-.00693701.0110945-.0221929.0152559-.0332835.0083189-.0110945-.00693701-.0152559-.0221929-.0083189-.0332835.0208031-.0360591.0360591-.0776614.044378-.120657.00138976-.0110945.0124803-.0208031.0235748-.0208031l.0776654.00000394v-.0818228h-.0790512c-.0124803 0-.0221929-.00832283-.0235787-.0208031-.00970472-.0540906-.0305079-.105406-.0624055-.148398-.00693701-.00970472-.00554724-.0235748.00277165-.0318976l.0554764-.0554764-.058248-.058248-.0554764.0554764c-.0083189.0083189-.022189.00970866-.0305118.00277165-.0429921-.0305118-.0956929-.0526969-.14978-.0610236-.0110984-.00138583-.0208071-.0124803-.0208071-.0235748v-.0776614h-.0818228v.0776614c0 .0124803-.0083189.0221929-.0208031.0235748-.0540866.00970866-.104012.0305118-.14978.0624094-.00970866.00693701-.0221929.00554724-.0305118-.00277165l-.0554764-.0554764-.058248.058248.0554764.0554764c.0083189.0083189.00970866.022189.00277165.0318976-.0305118.0429921-.0527008.0943071-.0610236.148394-.00138976.0110945-.0124803.0208031-.0235748.0208031h-.0790472v.0818228l.0790512.00000394c.0124803 0 .022189.00832283.0235748.0208031.00693701.0429921.0221929.0846024.044378.120661.00693701.0110945.00277165.0263504-.0083189.0332835-.00416142-.00000394-.0083189.00138189-.0124803.00138189z" fill="#fff"></path></g><g><path id="_273560168" d="m1.58517 1.19824c-.00416142 0-.0083189-.00138583-.0110945-.00277165-.0124803-.00693701-.0166417-.0208071-.0110945-.0332874.0152559-.0277362.0235787-.0568583.0235787-.0845984 0-.0943071-.0762795-.170583-.170583-.170583-.0929213 0-.169201.0762795-.169201.170583 0 .0305118.00693701.0596339.0221929.0845984.00693701.0110945.00277165.0263504-.0083189.0332835-.0110945.00693701-.0263504.00277165-.0332835-.0083189-.0194173-.0332835-.029126-.0707323-.029126-.109563 0-.120657.0970787-.219126.21774-.219126.120657 0 .219126.0984685.219126.219126 0 .0374449-.00970866.0735039-.029126.108173-.00416535.00832677-.0124882.0124843-.020811.0124843z" fill="#fff"></path></g><g><path id="_273559976" d="m.962465 1.36327h-.206642c-.0138661 0-.0249646-.0110945-.0249646-.0249646v-.402185c0-.0138701.0110984-.0249646.0249646-.0249646.0138701 0 .0249646.0110945.0249646.0249646v.37861h.183067c.0138661 0 .0249606.0110945.0249606.0249646 0 .0138661-.0124803.0235748-.0263504.0235748z" fill="#fff"></path></g><g><path id="_273559544" d="m2.0775 1.36327h-.208031c-.0138661 0-.0249606-.0110945-.0249606-.0249646 0-.0138661.0110945-.0249646.0249606-.0249646h.183067v-.37722c0-.0138701.0110945-.0249646.0249646-.0249646.0138661 0 .0249646.0110945.0249646.0249646v.403575c-.00138976.0124843-.0124843.0235748-.0249646.0235748z" fill="#fff"></path></g><g><path id="_273559808" d="m.962465 1.62539h-.374453c-.0138661 0-.0249606-.0110945-.0249606-.0249606v-.464598c0-.0138701.0110945-.0249646.0249606-.0249646.0138701 0 .0249646.0110945.0249646.0249646v.44102h.350878c.0138661 0 .0249606.0110984.0249606.0249646 0 .0138701-.0124803.0235748-.0263504.0235748z" fill="#fff"></path></g><g><path id="_273559688" d="m2.24531 1.62539h-.375843c-.0138661 0-.0249606-.0110945-.0249606-.0249606 0-.0138701.0110945-.0249646.0249606-.0249646h.350878v-.439634c0-.0138701.0110945-.0249646.0249646-.0249646.0138661 0 .0249606.0110945.0249606.0249646v.464598c-.00138583.0138661-.0124803.0249606-.0249606.0249606z" fill="#fff"></path></g><g><path id="_273559832" d="m1.41597 2.01093c-.00416142 0-.00832283-.00138583-.0124803-.00277165l-.334232-.194161c-.0110945-.00693307-.0152559-.022189-.0083189-.0332835.00693307-.0110945.022189-.0152559.0332835-.0083189l.321752.187224.155331-.0901457c.0110945-.00693701.0263504-.00277165.0332835.0083189.00693307.0110984.00277165.0263543-.00832283.0332835l-.167807.0970787c-.00416929.00277559-.00833071.00277559-.0124882.00277559zm.334232-.579705c-.00416142 0-.00832283-.00138583-.0124803-.00277165l-.321752-.187228-.153945.0901457c-.0110945.00693701-.0263504.00277165-.0332835-.0083189-.00693307-.0110945-.00277165-.0263504.00832283-.0332835l.166421-.0970787c.00693701-.00416142.0166417-.00416142.0249646 0l.334232.194161c.0110945.00693701.0152559.0221929.0083189.0332835-.00415748.00692913-.0124803.0110906-.0207992.0110906z" fill="#fff"></path></g><g><path id="_273560072" d="m.919472 2.19539h-.126201c-.0138701 0-.0249646-.0110984-.0249646-.0249646v-.307886c0-.0138661.0110945-.0249606.0249646-.0249606h.170583c.0138661 0 .0249606.0110945.0249606.0249606 0 .0138701-.0110945.0249646-.0249606.0249646h-.147008v.259346h.102626c.0138701 0 .0249646.0110945.0249646.0249606 0 .0138701-.0124803.0235787-.0249646.0235787z" fill="#fff"></path></g><g><path id="_273559664" d="m2.04144 2.19539h-.127591c-.0138701 0-.0249646-.0110984-.0249646-.0249646 0-.0138701.0110945-.0249646.0249646-.0249646h.104016v-.259343h-.148398c-.0138661 0-.0249606-.0110984-.0249606-.0249646 0-.0138701.0110945-.0249646.0249606-.0249646l.171972.00000394c.0138661 0 .0249646.0110945.0249646.0249646v.307882c-.00138976.015252-.0124803.0263504-.0249646.0263504z" fill="#fff"></path></g><g><path id="_273559592" d="m.990205 2.26612c-.0527008 0-.0956969-.0429882-.0956969-.0956929 0-.0527008.0429921-.0956969.0956969-.0956969.0527008 0 .0956929.0429921.0956929.0956969-.00000394.0527008-.0429921.0956929-.0956929.0956929zm0-.14285c-.0263504 0-.0471535.0208071-.0471535.0471535 0 .0263504.0208071.0471496.0471535.0471496.0263504 0 .0471496-.0208031.0471496-.0471496s-.0208031-.0471535-.0471496-.0471535z" fill="#fff"></path></g><g><path id="_273559928" d="m1.84174 2.26612c-.0527008 0-.0956969-.0429882-.0956969-.0956929 0-.0527008.0429921-.0956969.0956969-.0956969.0526969 0 .0956929.0429921.0956929.0956969 0 .0527008-.0429921.0956929-.0956929.0956929zm0-.14285c-.0263543 0-.0471535.0208071-.0471535.0471535 0 .0263504.0208031.0471496.0471535.0471496s.0471496-.0208031.0471496-.0471496c.00000394-.0263465-.0207992-.0471535-.0471496-.0471535z" fill="#fff"></path></g><g><path id="_273559616" d="m2.0775.959697c-.0527008 0-.0956969-.0429921-.0956969-.0956969 0-.0526969.0429921-.0956929.0956969-.0956929.0527008 0 .0956929.0429921.0956929.0956929-.00138583.0527047-.0443819.0956969-.0956929.0956969zm0-.142846c-.0263504 0-.0471535.0208031-.0471535.0471496 0 .0263543.0208071.0471535.0471535.0471535.0263504 0 .0471496-.0208031.0471496-.0471535-.00138583-.0263465-.022185-.0471496-.0471496-.0471496z" fill="#fff"></path></g><g><path id="_273559040" d="m.755823.959697c-.0527008 0-.0956929-.0429921-.0956929-.0956969 0-.0526969.0429882-.0956929.0956929-.0956929.0527008 0 .0956969.0429921.0956969.0956929 0 .0527047-.0429921.0956969-.0956969.0956969zm0-.142846c-.0263504 0-.0471496.0208031-.0471496.0471496 0 .0263543.0208031.0471535.0471496.0471535.0263504 0 .0471535-.0208031.0471535-.0471535.00000394-.0263465-.0208031-.0471496-.0471535-.0471496z" fill="#fff"></path></g></g><g><g><path id="_273558992" d="m.669839 1.92218c-.0138661 0-.0249606-.0110984-.0249606-.0249646v-.296787c0-.0138701.0110945-.0249646.0249606-.0249646.0138701 0 .0249646.0110945.0249646.0249646v.298173c-.00138583.0124803-.0124843.0235787-.0249646.0235787z" fill="#fff"></path></g><g><path id="_273558944" d="m2.1621 1.92218c-.0138661 0-.0249646-.0110984-.0249646-.0249646v-.296787c0-.0138701.0110984-.0249646.0249646-.0249646.0138661 0 .0249646.0110945.0249646.0249646v.298173c0 .0124803-.0110984.0235787-.0249646.0235787z" fill="#fff"></path></g></g></g></g></g></svg>