<svg id="Layer_1" viewBox="0 0 512 512" xmlns="http://www.w3.org/2000/svg" data-name="Layer 1"><path d="m292.459 163.525c18.314-10.573 41.732-4.298 52.305 14.015 10.573 18.314 4.299 41.732-14.015 52.305-18.314 10.574-41.732 4.299-52.305-14.015-10.574-18.314-4.299-41.732 14.015-52.305z" fill="#ffaa20" fill-rule="evenodd"/><path d="m79.224 357.274 74.347 128.773c5.014 8.685 16.222 11.688 24.907 6.674 8.684-5.014 11.688-16.222 6.674-24.907l-74.347-128.773c-5.014-8.684-16.221-11.688-24.906-6.674-8.684 5.014-11.688 16.222-6.674 24.906z" fill="#868686" fill-rule="evenodd"/><path d="m79.224 357.274 74.347 128.773c5.013 8.683 16.216 11.686 24.9 6.677l.007-.004-92.58-160.353c-8.684 5.014-11.688 16.222-6.674 24.906z" fill="#9d9d9d" fill-rule="evenodd"/><path d="m152.353 343.146c-32.564-56.403-21.742-37.659-54.306-94.062l127.572-121.876c46.485 80.514 56.677 98.167 103.162 178.681l-176.427 37.257z" fill="#e6e6e6" fill-rule="evenodd"/><path d="m224.49 125.253 105.419 182.591c4.988 8.639 16.136 11.626 24.775 6.639 8.639-4.988 11.626-16.136 6.638-24.775l-105.419-182.591c-4.988-8.639-16.136-11.626-24.775-6.638-8.639 4.988-11.626 16.136-6.639 24.775z" fill="#ee2b39" fill-rule="evenodd"/><path d="m23.234 354.985c14.934 25.867 48.317 34.812 74.184 19.877l54.935-31.716-54.307-94.062-54.935 31.717c-25.867 14.934-34.812 48.317-19.878 74.184z" fill="#ee2b39" fill-rule="evenodd"/><path d="m129.179 349.355h33.93v33.93h-33.93z" fill="#ffaa20" transform="matrix(.866 -.5 .5 .866 -163.58 122.148)"/><path d="m89.598 378.577c2.663-1.013 5.278-2.247 7.82-3.715l25.551-14.752-26.52-7.106-6.852 25.572z" fill="#ee2b39" fill-rule="evenodd"/><path d="m139.934 389.495 29.384-16.965-46.349-12.419z" fill="#ffc25c" fill-rule="evenodd"/><path d="m292.459 163.525c18.314-10.573 41.732-4.298 52.305 14.015l-66.32 38.29c-10.574-18.314-4.299-41.732 14.015-52.305z" fill="#ffc25c" fill-rule="evenodd"/><path d="m128.747 302.258-30.7-53.174 127.572-121.876 51.581 89.341z" fill="#ededed" fill-rule="evenodd"/><path d="m224.491 125.253 52.709 91.295 31.414-18.137-52.709-91.295c-4.988-8.639-16.136-11.626-24.775-6.638-8.639 4.987-11.626 16.137-6.639 24.775z" fill="#f3646f" fill-rule="evenodd"/><path d="m23.234 354.985c1.202 2.081 2.524 4.051 3.951 5.909l101.562-58.637-30.7-53.174-54.935 31.717c-25.867 14.934-34.812 48.317-19.878 74.184z" fill="#f3646f" fill-rule="evenodd"/><path d="m107.597 16.851c-19.394 0-37.23 6.668-51.344 17.834l135.656 181.404-17.709-67.176c10.192-13.763 16.219-30.797 16.219-49.239 0-45.742-37.081-82.822-82.822-82.822z" fill="#0dbaf3" fill-rule="evenodd"/><path d="m107.597 16.851c-45.742 0-82.822 37.081-82.822 82.823s37.081 82.823 82.822 82.823c6.807 0 13.422-.821 19.751-2.37l64.561 35.962-17.709-67.177c10.192-13.763 16.219-30.797 16.219-49.239 0-45.742-37.081-82.823-82.823-82.823z" fill="#4fcdf6" fill-rule="evenodd"/><path d="m142.344 124.421c3.253 0 5.89 2.637 5.89 5.89s-2.637 5.89-5.89 5.89h-72.836c-3.253 0-5.891-2.637-5.891-5.89s2.637-5.89 5.891-5.89zm0-58.407c3.253 0 5.89 2.637 5.89 5.89s-2.637 5.89-5.89 5.89h-72.836c-3.253 0-5.891-2.637-5.891-5.89s2.637-5.89 5.891-5.89zm14.81 29.204c3.253 0 5.89 2.637 5.89 5.89s-2.637 5.89-5.89 5.89h-102.456c-3.253 0-5.89-2.637-5.89-5.89s2.637-5.89 5.89-5.89h102.457z" fill="#fff" fill-rule="evenodd"/><path d="m107.597 16.851c-19.394 0-37.23 6.668-51.344 17.834l135.656 181.404-17.709-67.176c10.192-13.763 16.219-30.797 16.219-49.239 0-45.742-37.081-82.822-82.822-82.822z" fill="#0dbaf3" fill-rule="evenodd"/><circle cx="310.514" cy="412.975" fill="#ee2b39" r="75.102" transform="matrix(.23 -.973 .973 .23 -162.755 620.299)"/><path d="m350.88 417.225-53.49 30.882c-1.561.901-3.347.901-4.908 0s-2.454-2.449-2.454-4.251v-61.765c0-1.802.893-3.35 2.454-4.251s3.347-.901 4.908 0l53.49 30.882c1.561.901 2.454 2.449 2.454 4.251s-.893 3.35-2.454 4.251z" fill="#eaeced" fill-rule="evenodd"/><path d="m310.514 337.873c41.477 0 75.102 33.624 75.102 75.101h-150.203c0-41.477 33.624-75.101 75.102-75.101z" fill="#f2535f" fill-rule="evenodd"/><path d="m290.027 412.974v-30.882c0-1.802.893-3.35 2.454-4.251s3.347-.901 4.908 0l53.49 30.883c1.561.901 2.454 2.449 2.454 4.251h-63.306z" fill="#fff" fill-rule="evenodd"/><path d="m342.907 16.851h153.093v114.868h-153.093z" fill="#7985eb"/><path d="m496 16.851h-153.093l76.547 59.645z" fill="#929cef" fill-rule="evenodd"/><path d="m342.907 16.851h76.547v114.868h-76.547z" fill="#929cef"/><g fill-rule="evenodd"><path d="m419.454 16.851h-76.547l76.547 59.645z" fill="#a7aff2"/><path d="m326.79 241.06c-3.02 0-5.91-1.72-7.26-4.64-1.859-4-.12-8.76 3.88-10.62.831-.38 1.64-.81 2.43-1.26 14.411-8.32 19.37-26.82 11.05-41.23-4.029-6.98-10.54-11.97-18.33-14.06-7.78-2.08-15.92-1.01-22.9 3.02-.789.45-1.56.95-2.3 1.47-3.609 2.54-8.6 1.67-11.15-1.94-2.539-3.61-1.67-8.61 1.94-11.15 1.13-.79 2.31-1.54 3.51-2.24 10.68-6.171 23.13-7.8 35.04-4.61 11.92 3.19 21.88 10.83 28.04 21.51 12.731 22.05 5.15 50.35-16.9 63.08-1.2.7-2.44 1.34-3.69 1.92-1.09.51-2.24.75-3.36.75z"/><path d="m169.001 504c-2.28 0-4.581-.3-6.851-.9-6.759-1.82-12.41-6.14-15.9-12.18l-48.49-83.99c-2.209-3.82-.9-8.72 2.93-10.93 3.831-2.2 8.72-.89 10.93 2.93l48.49 83.99c1.35 2.34 3.54 4.02 6.18 4.72 2.64.71 5.38.35 7.72-.99 2.341-1.35 4.02-3.55 4.73-6.19.7-2.64.35-5.38-1-7.72l-62-107.39c-2.21-3.82-.9-8.72 2.93-10.93 3.82-2.2 8.72-.89 10.92 2.93l62.01 107.39c3.481 6.04 4.4 13.09 2.59 19.86-1.809 6.77-6.14 12.42-12.18 15.9-4.009 2.32-8.48 3.5-13.009 3.5z"/><path d="m194.641 165.28c-2.15 0-4.291-.87-5.861-2.57-3.009-3.24-2.82-8.3.43-11.3l30.37-28.15c3.24-3 8.3-2.81 11.3.43 3.011 3.24 2.82 8.3-.43 11.31l-30.37 28.14c-1.54 1.43-3.49 2.14-5.439 2.14zm-96.821 93.37c-2.189 0-4.36-.89-5.94-2.64-2.96-3.28-2.7-8.34.58-11.3l37.04-33.4c3.281-2.96 8.34-2.7 11.3.59 2.951 3.28 2.69 8.34-.59 11.29l-37.039 33.4c-1.53 1.38-3.44 2.06-5.35 2.06zm54.141 93.79c-3.7 0-7.031-2.58-7.821-6.35-.919-4.32 1.85-8.57 6.17-9.48l175.92-37.15c4.32-.92 8.56 1.85 9.48 6.17.91 4.33-1.86 8.57-6.18 9.48l-175.91 37.15c-.559.12-1.12.18-1.659.18z"/><path d="m300.181 267.3c-2.76 0-5.451-1.43-6.941-4l-3.07-5.32c-2.21-3.83-.9-8.72 2.93-10.93 3.82-2.21 8.72-.9 10.93 2.93l3.071 5.32c2.21 3.83.9 8.72-2.93 10.93-1.259.73-2.63 1.07-3.989 1.07zm44.53 58.97c4.419 0 8.9-1.12 13-3.49 6.01-3.47 10.32-9.1 12.13-15.84s.89-13.77-2.589-19.79l-105.111-182.05c-7.19-12.46-23.169-16.74-35.63-9.55-12.45 7.19-16.739 23.17-9.549 35.63l62.879 108.9c2.21 3.82 7.1 5.14 10.92 2.92 3.83-2.2 5.141-7.1 2.931-10.92l-62.87-108.9c-2.78-4.82-1.12-10.99 3.69-13.78 4.82-2.78 11-1.12 13.78 3.7l105.11 182.05c1.33 2.32 1.681 5.03.98 7.65-.7 2.61-2.359 4.79-4.67 6.13-2.32 1.34-5.03 1.68-7.65.98s-4.789-2.36-6.13-4.67c-.02-.04-.04-.08-.069-.12l-18.551-30.94c-2.27-3.79-7.18-5.02-10.97-2.75-3.79 2.28-5.02 7.19-2.75 10.98l18.52 30.89c4.83 8.32 13.6 12.97 22.6 12.97z"/><path d="m94.891 261.58-47.85 27.62c-10.62 6.13-18.231 16.09-21.441 28.04-3.2 11.95-1.58 24.38 4.55 35 6.13 10.62 16.09 18.24 28.04 21.44 11.951 3.2 24.38 1.59 35-4.55l47.85-27.62-46.15-79.93zm-24.67 129.72c-21.5 0-42.43-11.14-53.931-31.06-8.269-14.32-10.45-31.07-6.14-47.14 4.311-16.08 14.57-29.49 28.89-37.75l54.781-31.63c1.83-1.06 4.019-1.35 6.069-.8 2.051.55 3.79 1.89 4.86 3.73l54.141 93.79c2.21 3.82.899 8.71-2.921 10.92l-54.78 31.63c-9.761 5.63-20.43 8.31-30.97 8.31z"/><path d="m139.59 398.65c-2.77 0-5.45-1.43-6.94-4-2.209-3.83-.89-8.72 2.93-10.93l22.37-12.91-12.909-22.37c-2.211-3.83-.901-8.72 2.929-10.93 3.821-2.21 8.71-.9 10.92 2.93l16.921 29.29c2.21 3.83.899 8.72-2.931 10.93l-29.299 16.92c-1.26.73-2.631 1.07-3.991 1.07z"/><path d="m373.731 170.05c-2.761 0-5.451-1.44-6.941-4-2.2-3.83-.89-8.72 2.93-10.93l11.661-6.74c3.83-2.2 8.719-.89 10.929 2.93 2.211 3.83.9 8.72-2.92 10.93l-11.67 6.73c-1.26.73-2.63 1.08-3.989 1.08z"/><path d="m430.761 213.63h-45.36c-4.42 0-8-3.59-8-8 0-4.42 3.58-8 8-8h45.36c4.42 0 8 3.58 8 8 0 4.41-3.58 8-8 8z"/><path d="m413 279.89c-1.359 0-2.74-.35-4-1.08l-39.28-22.68c-3.819-2.2-5.13-7.1-2.93-10.92 2.21-3.83 7.11-5.14 10.93-2.93l39.281 22.68c3.829 2.21 5.139 7.1 2.929 10.93-1.479 2.56-4.17 4-6.93 4z"/><path d="m298.241 126.47c-4.42 0-8.001-3.59-8.001-8v-45.36c0-4.42 3.58-8 8-8s8 3.58 8 8v45.36c0 4.41-3.58 8-7.999 8z"/><path d="m120.49 174.31c1.36 0 2.7.34 3.9 1.01l49.34 27.49-13.25-50.25c-.62-2.35-.14-4.85 1.31-6.8 9.781-13.21 14.95-28.91 14.95-45.4 0-42.11-34.26-76.36-76.36-76.36-42.109 0-76.37 34.25-76.37 76.36.001 42.11 34.26 76.37 76.37 76.37 6.16 0 12.29-.74 18.21-2.19.631-.15 1.27-.23 1.9-.23zm65.771 52.63c-1.34 0-2.681-.33-3.901-1.01l-63.09-35.14c-6.19 1.29-12.531 1.94-18.89 1.94-50.939 0-92.37-41.44-92.37-92.37s41.43-92.36 92.37-92.36 92.36 41.43 92.36 92.36c0 18.63-5.46 36.44-15.83 51.73l17.081 64.81c.82 3.11-.291 6.4-2.831 8.36-1.43 1.12-3.16 1.68-4.899 1.68z"/><path d="m135.771 80.07h-74.19c-4.42 0-8-3.58-8-8 0-4.41 3.58-8 8-8h74.191c4.42 0 7.999 3.59 7.999 8 0 4.42-3.58 8-7.999 8z"/><path d="m150.851 109.82h-104.36c-4.42 0-8.001-3.58-8.001-8 .001-4.42 3.58-8 8-8h104.36c4.42 0 8 3.58 8 8s-3.58 8-8 8z"/><path d="m135.771 139.57h-74.19c-4.42 0-8-3.58-8-8s3.58-8 8-8h74.191c4.42 0 7.999 3.58 7.999 8s-3.58 8-7.999 8z"/><path d="m307.57 347.5c-37.77 0-68.5 30.72-68.5 68.5s30.73 68.5 68.5 68.5 68.5-30.73 68.5-68.5c0-37.78-30.73-68.5-68.5-68.5zm0 153c-46.59 0-84.5-37.91-84.5-84.5 0-46.6 37.91-84.5 84.5-84.5 46.591 0 84.5 37.9 84.5 84.5s-37.91 84.5-84.5 84.5z"/><path d="m294.2 393.24v52.52l45.49-26.26zm-8 74.37c-1.379 0-2.76-.35-4-1.07-2.47-1.43-4-4.07-4-6.93v-80.23c0-2.86 1.53-5.5 4-6.93 2.48-1.43 5.53-1.43 8 0l69.491 40.12c2.469 1.43 3.999 4.07 3.999 6.93 0 2.85-1.53 5.49-4 6.92l-69.489 40.12c-1.24.72-2.621 1.07-4.001 1.07z"/><path d="m348.071 125h139.94v-101h-139.94zm147.94 16h-155.94c-4.42 0-8.001-3.58-8.001-8v-117c.001-4.42 3.58-8 8-8h155.94c4.42 0 8 3.58 8 8v117c0 4.42-3.58 8-8 8z"/><path d="m418.04 84.75c-1.6 0-3.21-.48-4.58-1.44l-77.969-54.43c-3.63-2.52-4.511-7.51-1.981-11.13 2.53-3.63 7.51-4.51 11.14-1.98l73.39 51.23 73.39-51.23c3.62-2.53 8.609-1.65 11.14 1.98 2.53 3.62 1.64 8.61-1.98 11.13l-77.969 54.43c-1.38.96-2.981 1.44-4.581 1.44z"/></g></svg>