<svg xmlns="http://www.w3.org/2000/svg" xmlns:xlink="http://www.w3.org/1999/xlink" id="Capa_1" x="0px" y="0px" viewBox="0 0 512 512" style="enable-background:new 0 0 512 512;" xml:space="preserve" width="512" height="512"><g>	<g>		<g>			<path style="fill:#CCF49F;" d="M119.726,79.645h312.629c4.427,0,8.016,3.589,8.016,8.016v408.823     c0,4.427-3.589,8.016-8.016,8.016H119.726c-4.427,0-8.016-3.589-8.016-8.016V87.661C111.71,83.234,115.299,79.645,119.726,79.645     z"></path>		</g>		<g>			<path style="fill:#ECEAEC;" d="M400.29,47.581H87.661c-4.427,0-8.016,3.589-8.016,8.016v408.823c0,4.427,3.589,8.016,8.016,8.016     h241.86c4.252,0,8.33-1.689,11.336-4.695l62.753-62.752c3.007-3.007,4.696-7.085,4.696-11.337V55.597     C408.306,51.17,404.717,47.581,400.29,47.581z"></path>		</g>		<g>			<path style="fill:#FFFFFF;" d="M340.857,467.74l62.753-62.752c1.366-1.366,2.419-2.974,3.206-4.698h-62.639     c-4.427,0-8.016,3.589-8.016,8.016v62.639C337.885,470.158,339.492,469.106,340.857,467.74z"></path>		</g>		<path style="fill:#DAD8DB;" d="M79.645,264.016h24.048v208.419H87.661c-4.427,0-8.016-3.589-8.016-8.016V264.016z"></path>		<g>			<path style="fill:#FFE07D;" d="M288.065,264.016H79.645c-4.427,0-8.016-3.589-8.016-8.016V47.581     c0-4.427,3.589-8.016,8.016-8.016h208.419c4.427,0,8.016,3.589,8.016,8.016V256C296.081,260.427,292.492,264.016,288.065,264.016     z"></path>		</g>		<g>			<path style="fill:#FFD064;" d="M176.411,239.968c-44.272,0-80.161-35.889-80.161-80.161V39.565H79.645     c-4.427,0-8.016,3.589-8.016,8.016V256c0,4.427,3.589,8.016,8.016,8.016h208.419c4.427,0,8.016-3.589,8.016-8.016v-16.032     H176.411z"></path>		</g>	</g>	<g>		<path d="M432.355,72.145h-16.548V55.597c0-8.556-6.96-15.516-15.516-15.516h-98.652c-2.649-4.774-7.738-8.016-13.574-8.016    H174.601C171.085,13.824,155.01,0,135.758,0c-19.251,0-35.327,13.824-38.842,32.064H79.645c-8.556,0-15.516,6.96-15.516,15.516    V256c0,5.836,3.242,10.925,8.016,13.574v194.846c0,8.556,6.96,15.516,15.516,15.516h16.548v16.548    c0,8.556,6.96,15.517,15.516,15.517h312.629c8.556,0,15.516-6.961,15.516-15.517V87.661    C447.871,79.105,440.911,72.145,432.355,72.145z M79.129,47.581c0-0.285,0.231-0.516,0.516-0.516h16.548v72.662    c0,21.816,17.749,39.564,39.565,39.564c21.816,0,39.564-17.749,39.564-39.565V87.661c0-12.976-10.557-23.532-23.532-23.532    s-23.532,10.557-23.532,23.532v16.032c0,4.142,3.358,7.5,7.5,7.5s7.5-3.358,7.5-7.5V87.661c0-4.705,3.828-8.532,8.532-8.532    s8.532,3.828,8.532,8.532v32.064c0,13.545-11.02,24.565-24.565,24.565s-24.564-11.02-24.564-24.564V39.594    c0-0.01,0.001-0.019,0.001-0.029c0-0.007-0.001-0.013-0.001-0.019C111.204,26.009,122.219,15,135.758,15    c10.93,0,20.211,7.177,23.389,17.064h-23.393c-4.142,0-7.5,3.358-7.5,7.5s3.358,7.5,7.5,7.5h152.31    c0.285,0,0.516,0.231,0.516,0.516V256c0,0.285-0.231,0.516-0.516,0.516H79.645c-0.285,0-0.516-0.231-0.516-0.516V47.581z     M432.871,496.483c0,0.285-0.231,0.517-0.516,0.517H119.726c-0.285,0-0.516-0.231-0.516-0.517v-16.548h210.312    c6.286,0,12.196-2.448,16.64-6.893l62.753-62.751c4.445-4.445,6.893-10.354,6.893-16.64V127.743c0-4.142-3.358-7.5-7.5-7.5    s-7.5,3.358-7.5,7.5v265.048h-56.629c-8.556,0-15.516,6.96-15.516,15.516v56.629h-241c-0.285,0-0.516-0.231-0.516-0.516V271.516    h200.919c8.556,0,15.516-6.96,15.516-15.516V55.081h96.71c0.285,0,0.516,0.231,0.516,0.516v40.081c0,4.142,3.358,7.5,7.5,7.5    s7.5-3.358,7.5-7.5v-8.533h16.548c0.285,0,0.516,0.231,0.516,0.516V496.483z M343.661,454.33v-46.023    c0-0.285,0.231-0.516,0.516-0.516h46.025L343.661,454.33z"></path>		<path d="M207.903,119.209h40.081c4.142,0,7.5-3.358,7.5-7.5s-3.358-7.5-7.5-7.5h-40.081c-4.142,0-7.5,3.358-7.5,7.5    S203.761,119.209,207.903,119.209z"></path>		<path d="M207.903,159.291h40.081c4.142,0,7.5-3.358,7.5-7.5s-3.358-7.5-7.5-7.5h-40.081c-4.142,0-7.5,3.358-7.5,7.5    S203.761,159.291,207.903,159.291z"></path>		<path d="M119.726,199.371h128.258c4.142,0,7.5-3.358,7.5-7.5s-3.358-7.5-7.5-7.5H119.726c-4.142,0-7.5,3.358-7.5,7.5    S115.583,199.371,119.726,199.371z"></path>		<path d="M360.209,184.371h-16.032c-4.142,0-7.5,3.358-7.5,7.5s3.358,7.5,7.5,7.5h16.032c4.142,0,7.5-3.358,7.5-7.5    S364.352,184.371,360.209,184.371z"></path>		<path d="M360.209,104.209h-16.032c-4.142,0-7.5,3.358-7.5,7.5s3.358,7.5,7.5,7.5h16.032c4.142,0,7.5-3.358,7.5-7.5    S364.352,104.209,360.209,104.209z"></path>		<path d="M360.209,144.291h-16.032c-4.142,0-7.5,3.358-7.5,7.5s3.358,7.5,7.5,7.5h16.032c4.142,0,7.5-3.358,7.5-7.5    S364.352,144.291,360.209,144.291z"></path>		<path d="M360.209,224.452h-16.032c-4.142,0-7.5,3.358-7.5,7.5s3.358,7.5,7.5,7.5h16.032c4.142,0,7.5-3.358,7.5-7.5    S364.352,224.452,360.209,224.452z"></path>		<path d="M143.774,296.597h-16.033c-4.142,0-7.5,3.358-7.5,7.5s3.358,7.5,7.5,7.5h16.033c4.142,0,7.5-3.358,7.5-7.5    S147.917,296.597,143.774,296.597z"></path>		<path d="M143.774,376.758h-16.033c-4.142,0-7.5,3.358-7.5,7.5s3.358,7.5,7.5,7.5h16.033c4.142,0,7.5-3.358,7.5-7.5    S147.917,376.758,143.774,376.758z"></path>		<path d="M143.774,336.677h-16.033c-4.142,0-7.5,3.358-7.5,7.5s3.358,7.5,7.5,7.5h16.033c4.142,0,7.5-3.358,7.5-7.5    S147.917,336.677,143.774,336.677z"></path>		<path d="M360.209,296.597H183.855c-4.142,0-7.5,3.358-7.5,7.5s3.358,7.5,7.5,7.5h176.354c4.142,0,7.5-3.358,7.5-7.5    S364.352,296.597,360.209,296.597z"></path>		<path d="M296.081,376.758H183.855c-4.142,0-7.5,3.358-7.5,7.5s3.358,7.5,7.5,7.5h112.226c4.142,0,7.5-3.358,7.5-7.5    S300.223,376.758,296.081,376.758z"></path>		<path d="M360.209,336.677H183.855c-4.142,0-7.5,3.358-7.5,7.5s3.358,7.5,7.5,7.5h176.354c4.142,0,7.5-3.358,7.5-7.5    S364.352,336.677,360.209,336.677z"></path>	</g></g></svg>