<svg xmlns="http://www.w3.org/2000/svg" xmlns:svg="http://www.w3.org/2000/svg" id="svg1893" xml:space="preserve" width="682.66669" height="682.66669" viewBox="0 0 682.66669 682.66669"><defs id="defs1897"><clipPath clipPathUnits="userSpaceOnUse" id="clipPath1907"><path d="M 0,512 H 512 V 0 H 0 Z" id="path1905"></path></clipPath></defs><g id="g1899" transform="matrix(1.3333333,0,0,-1.3333333,0,682.66667)"><g id="g1901"><g id="g1903" clip-path="url(#clipPath1907)"><g id="g1909" transform="translate(106.9126,407.6665)"><path d="m 0,0 v -367.033 c 0,-18.299 14.834,-33.133 33.132,-33.133 h 314.769 c 18.299,0 33.133,14.834 33.133,33.133 V 0 Z" style="fill:#f9f5f3;fill-opacity:1;fill-rule:nonzero;stroke:none" id="path1911"></path></g><g id="g1913" transform="translate(464.9468,407.6665)"><path d="m 0,0 v -367.033 c 0,-18.299 -14.834,-33.133 -33.133,-33.133 h 23 c 18.299,0 33.133,14.834 33.133,33.133 V 0 Z" style="fill:#f9eae0;fill-opacity:1;fill-rule:nonzero;stroke:none" id="path1915"></path></g><g id="g1917" transform="translate(225.4146,118.0889)"><path d="M 0,0 -129.302,129.302 -176.16,82.444 -46.858,-46.857 c 1.501,-1.501 3.535,-2.344 5.657,-2.344 h 7.141 l 36.403,36.403 v 7.141 C 2.343,-3.535 1.5,-1.5 0,0" style="fill:#a0c8ff;fill-opacity:1;fill-rule:nonzero;stroke:none" id="path1919"></path></g><g id="g1921" transform="translate(225.4146,118.0889)"><path d="M 0,0 -129.302,129.302 -140.778,117.826 -6.973,-15.98 c 1.098,-1.097 1.838,-2.481 2.16,-3.975 l 7.156,7.157 v 7.141 C 2.343,-3.535 1.5,-1.5 0,0" style="fill:#91b2fa;fill-opacity:1;fill-rule:nonzero;stroke:none" id="path1923"></path></g><g id="g1925" transform="translate(227.7578,76.8882)"><path d="m 0,0 v 35.544 c 0,0.966 -0.183,1.911 -0.515,2.799 L -46.343,-7.485 C -45.455,-7.817 -44.51,-8 -43.544,-8 H -8 c 4.418,0 8,3.582 8,8" style="fill:#f9eae0;fill-opacity:1;fill-rule:nonzero;stroke:none" id="path1927"></path></g><g id="g1929" transform="translate(52.3345,267.7402)"><path d="m 0,0 -23.429,-23.429 c -6.469,-6.47 -6.469,-16.959 0,-23.429 L 0,-70.287 46.858,-23.429 23.429,0 C 16.959,6.47 6.47,6.47 0,0" style="fill:#fa8ebb;fill-opacity:1;fill-rule:nonzero;stroke:none" id="path1931"></path></g><g id="g1933" transform="translate(52.5728,267.9551)"><path d="M 0,0 C 0.078,-0.075 0.162,-0.138 0.238,-0.215 L 35.143,-35.12 46.62,-23.644 23.19,-0.215 C 16.797,6.178 6.486,6.242 0,0" style="fill:#f57fb0;fill-opacity:1;fill-rule:nonzero;stroke:none" id="path1935"></path></g><g id="g1937" transform="translate(454.814,471.3667)"><path d="m 0,0 h -314.769 c -18.298,0 -33.132,-14.834 -33.132,-33.132 V -82.833 H 33.133 v 49.701 C 33.133,-14.834 18.299,0 0,0" style="fill:#ffce69;fill-opacity:1;fill-rule:nonzero;stroke:none" id="path1939"></path></g><g id="g1941" transform="translate(454.814,471.3667)"><path d="m 0,0 h -23 c 18.299,0 33.133,-14.834 33.133,-33.132 v -49.701 h 23 v 49.701 C 33.133,-14.834 18.299,0 0,0" style="fill:#ffbd61;fill-opacity:1;fill-rule:nonzero;stroke:none" id="path1943"></path></g><g id="g1945" transform="translate(156.6128,454.8003)"><path d="m 0,0 c 0,-9.149 7.417,-16.567 16.567,-16.567 9.15,0 16.567,7.418 16.567,16.567 V 33.133 C 33.134,42.283 25.717,49.7 16.567,49.7 7.417,49.7 0,42.283 0,33.133 Z" style="fill:#bdd3dd;fill-opacity:1;fill-rule:nonzero;stroke:none" id="path1947"></path></g><g id="g1949" transform="translate(405.1133,454.8003)"><path d="m 0,0 c 0,-9.149 7.417,-16.567 16.567,-16.567 9.149,0 16.567,7.418 16.567,16.567 V 33.133 C 33.134,42.283 25.716,49.7 16.567,49.7 7.417,49.7 0,42.283 0,33.133 Z" style="fill:#bdd3dd;fill-opacity:1;fill-rule:nonzero;stroke:none" id="path1951"></path></g><g id="g1953" transform="translate(239.4463,454.8003)"><path d="m 0,0 c 0,-9.149 7.417,-16.567 16.567,-16.567 9.149,0 16.567,7.418 16.567,16.567 V 33.133 C 33.134,42.283 25.716,49.7 16.567,49.7 7.417,49.7 0,42.283 0,33.133 Z" style="fill:#bdd3dd;fill-opacity:1;fill-rule:nonzero;stroke:none" id="path1955"></path></g><g id="g1957" transform="translate(322.2798,454.8003)"><path d="m 0,0 c 0,-9.149 7.417,-16.567 16.567,-16.567 9.15,0 16.567,7.418 16.567,16.567 V 33.133 C 33.134,42.283 25.717,49.7 16.567,49.7 7.417,49.7 0,42.283 0,33.133 Z" style="fill:#bdd3dd;fill-opacity:1;fill-rule:nonzero;stroke:none" id="path1959"></path></g><g id="g1961" transform="translate(421.6802,504.5005)"><path d="m 0,0 c -4.471,0 -8.52,-1.779 -11.5,-4.657 3.119,-3.013 5.067,-7.231 5.067,-11.91 V -49.7 c 0,-4.679 -1.948,-8.897 -5.067,-11.909 2.98,-2.879 7.029,-4.658 11.5,-4.658 9.149,0 16.567,7.417 16.567,16.567 v 33.133 C 16.567,-7.417 9.149,0 0,0" style="fill:#abc4d6;fill-opacity:1;fill-rule:nonzero;stroke:none" id="path1963"></path></g><g id="g1965" transform="translate(338.8467,504.5005)"><path d="m 0,0 c -4.47,0 -8.52,-1.779 -11.5,-4.657 3.12,-3.013 5.067,-7.231 5.067,-11.91 V -49.7 c 0,-4.679 -1.947,-8.897 -5.067,-11.909 2.98,-2.879 7.03,-4.658 11.5,-4.658 9.15,0 16.567,7.417 16.567,16.567 v 33.133 C 16.567,-7.417 9.15,0 0,0" style="fill:#abc4d6;fill-opacity:1;fill-rule:nonzero;stroke:none" id="path1967"></path></g><g id="g1969" transform="translate(256.0137,504.5005)"><path d="m 0,0 c -4.471,0 -8.52,-1.779 -11.5,-4.657 3.119,-3.013 5.067,-7.231 5.067,-11.91 V -49.7 c 0,-4.679 -1.948,-8.897 -5.067,-11.909 2.98,-2.879 7.029,-4.658 11.5,-4.658 9.149,0 16.567,7.417 16.567,16.567 v 33.133 C 16.567,-7.417 9.149,0 0,0" style="fill:#abc4d6;fill-opacity:1;fill-rule:nonzero;stroke:none" id="path1971"></path></g><g id="g1973" transform="translate(173.1802,504.5005)"><path d="m 0,0 c -4.471,0 -8.52,-1.779 -11.5,-4.657 3.12,-3.013 5.067,-7.231 5.067,-11.91 V -49.7 c 0,-4.679 -1.947,-8.897 -5.067,-11.909 2.98,-2.879 7.029,-4.658 11.5,-4.658 9.15,0 16.567,7.417 16.567,16.567 v 33.133 C 16.567,-7.417 9.15,0 0,0" style="fill:#abc4d6;fill-opacity:1;fill-rule:nonzero;stroke:none" id="path1975"></path></g><g id="g1977" transform="translate(180.8999,68.8882)"><path d="m 0,0 -151.994,151.994 c -6.47,6.47 -6.47,16.959 0,23.429 l 23.429,23.429 c 6.469,6.47 16.959,6.47 23.428,0 L 46.858,46.858 V 0 Z" style="fill:none;stroke:#000000;stroke-width:15;stroke-linecap:round;stroke-linejoin:round;stroke-miterlimit:10;stroke-dasharray:none;stroke-opacity:1" id="path1979"></path></g><g id="g1981" transform="translate(227.7578,68.8882)"><path d="M 0,0 11.714,-11.714" style="fill:none;stroke:#000000;stroke-width:15;stroke-linecap:round;stroke-linejoin:round;stroke-miterlimit:10;stroke-dasharray:none;stroke-opacity:1" id="path1983"></path></g><g id="g1985" transform="translate(99.1924,244.311)"><path d="M 0,0 -46.858,-46.857" style="fill:none;stroke:#000000;stroke-width:15;stroke-linecap:round;stroke-linejoin:round;stroke-miterlimit:10;stroke-dasharray:none;stroke-opacity:1" id="path1987"></path></g><g id="g1989" transform="translate(227.7578,115.7461)"><path d="M 0,0 -46.858,-46.858" style="fill:none;stroke:#000000;stroke-width:15;stroke-linecap:round;stroke-linejoin:round;stroke-miterlimit:10;stroke-dasharray:none;stroke-opacity:1" id="path1991"></path></g><g id="g1993" transform="translate(75.7632,220.8823)"><path d="M 0,0 128.565,-128.565" style="fill:none;stroke:#000000;stroke-width:15;stroke-linecap:round;stroke-linejoin:round;stroke-miterlimit:10;stroke-dasharray:none;stroke-opacity:1" id="path1995"></path></g><g id="g1997" transform="translate(487.9468,329.8823)"><path d="m 0,0 v 108.352 c 0,18.298 -14.834,33.132 -33.133,33.132 H -49.7" style="fill:none;stroke:#000000;stroke-width:15;stroke-linecap:round;stroke-linejoin:round;stroke-miterlimit:10;stroke-dasharray:none;stroke-opacity:1" id="path1999"></path></g><g id="g2001" transform="translate(425.1802,7.5005)"><path d="M 0,0 H 29.634 C 47.933,0 62.767,14.834 62.767,33.133 V 292.381" style="fill:none;stroke:#000000;stroke-width:15;stroke-linecap:round;stroke-linejoin:round;stroke-miterlimit:10;stroke-dasharray:none;stroke-opacity:1" id="path2003"></path></g><g id="g2005" transform="translate(106.9126,141.5859)"><path d="m 0,0 v -100.953 c 0,-18.298 14.834,-33.132 33.132,-33.132 h 255.136" style="fill:none;stroke:#000000;stroke-width:15;stroke-linecap:round;stroke-linejoin:round;stroke-miterlimit:10;stroke-dasharray:none;stroke-opacity:1" id="path2007"></path></g><g id="g2009" transform="translate(156.6133,471.3667)"><path d="M 0,0 H -16.568 C -34.867,0 -49.701,-14.834 -49.701,-33.132 V -233.486" style="fill:none;stroke:#000000;stroke-width:15;stroke-linecap:round;stroke-linejoin:round;stroke-miterlimit:10;stroke-dasharray:none;stroke-opacity:1" id="path2011"></path></g><g id="g2013" transform="translate(239.4463,471.3667)"><path d="M 0,0 H -49.7" style="fill:none;stroke:#000000;stroke-width:15;stroke-linecap:round;stroke-linejoin:round;stroke-miterlimit:10;stroke-dasharray:none;stroke-opacity:1" id="path2015"></path></g><g id="g2017" transform="translate(322.2803,471.3667)"><path d="M 0,0 H -49.701" style="fill:none;stroke:#000000;stroke-width:15;stroke-linecap:round;stroke-linejoin:round;stroke-miterlimit:10;stroke-dasharray:none;stroke-opacity:1" id="path2019"></path></g><g id="g2021" transform="translate(405.1138,471.3667)"><path d="M 0,0 H -49.527" style="fill:none;stroke:#000000;stroke-width:15;stroke-linecap:round;stroke-linejoin:round;stroke-miterlimit:10;stroke-dasharray:none;stroke-opacity:1" id="path2023"></path></g><g id="g2025" transform="translate(106.9126,388.5337)"><path d="M 0,0 H 381.034" style="fill:none;stroke:#000000;stroke-width:15;stroke-linecap:round;stroke-linejoin:round;stroke-miterlimit:10;stroke-dasharray:none;stroke-opacity:1" id="path2027"></path></g><g id="g2029" transform="translate(164.896,338.8335)"><path d="M 0,0 H 265.067" style="fill:none;stroke:#000000;stroke-width:15;stroke-linecap:round;stroke-linejoin:round;stroke-miterlimit:10;stroke-dasharray:none;stroke-opacity:1" id="path2031"></path></g><g id="g2033" transform="translate(164.896,289.1333)"><path d="M 0,0 H 265.067" style="fill:none;stroke:#000000;stroke-width:15;stroke-linecap:round;stroke-linejoin:round;stroke-miterlimit:10;stroke-dasharray:none;stroke-opacity:1" id="path2035"></path></g><g id="g2037" transform="translate(164.896,239.4336)"><path d="M 0,0 H 265.067" style="fill:none;stroke:#000000;stroke-width:15;stroke-linecap:round;stroke-linejoin:round;stroke-miterlimit:10;stroke-dasharray:none;stroke-opacity:1" id="path2039"></path></g><g id="g2041" transform="translate(164.896,189.7339)"><path d="M 0,0 H 265.067" style="fill:none;stroke:#000000;stroke-width:15;stroke-linecap:round;stroke-linejoin:round;stroke-miterlimit:10;stroke-dasharray:none;stroke-opacity:1" id="path2043"></path></g><g id="g2045" transform="translate(256.0132,140.0332)"><path d="M 0,0 H 173.95" style="fill:none;stroke:#000000;stroke-width:15;stroke-linecap:round;stroke-linejoin:round;stroke-miterlimit:10;stroke-dasharray:none;stroke-opacity:1" id="path2047"></path></g><g id="g2049" transform="translate(156.6128,454.8003)"><path d="m 0,0 c 0,-9.149 7.417,-16.567 16.567,-16.567 9.15,0 16.567,7.418 16.567,16.567 V 33.133 C 33.134,42.283 25.717,49.7 16.567,49.7 7.417,49.7 0,42.283 0,33.133 Z" style="fill:none;stroke:#000000;stroke-width:15;stroke-linecap:round;stroke-linejoin:round;stroke-miterlimit:10;stroke-dasharray:none;stroke-opacity:1" id="path2051"></path></g><g id="g2053" transform="translate(405.1133,454.8003)"><path d="m 0,0 c 0,-9.149 7.417,-16.567 16.567,-16.567 9.149,0 16.567,7.418 16.567,16.567 V 33.133 C 33.134,42.283 25.716,49.7 16.567,49.7 7.417,49.7 0,42.283 0,33.133 Z" style="fill:none;stroke:#000000;stroke-width:15;stroke-linecap:round;stroke-linejoin:round;stroke-miterlimit:10;stroke-dasharray:none;stroke-opacity:1" id="path2055"></path></g><g id="g2057" transform="translate(239.4463,454.8003)"><path d="m 0,0 c 0,-9.149 7.417,-16.567 16.567,-16.567 9.149,0 16.567,7.418 16.567,16.567 V 33.133 C 33.134,42.283 25.716,49.7 16.567,49.7 7.417,49.7 0,42.283 0,33.133 Z" style="fill:none;stroke:#000000;stroke-width:15;stroke-linecap:round;stroke-linejoin:round;stroke-miterlimit:10;stroke-dasharray:none;stroke-opacity:1" id="path2059"></path></g><g id="g2061" transform="translate(322.2798,454.8003)"><path d="m 0,0 c 0,-9.149 7.417,-16.567 16.567,-16.567 9.15,0 16.567,7.418 16.567,16.567 V 33.133 C 33.134,42.283 25.717,49.7 16.567,49.7 7.417,49.7 0,42.283 0,33.133 Z" style="fill:none;stroke:#000000;stroke-width:15;stroke-linecap:round;stroke-linejoin:round;stroke-miterlimit:10;stroke-dasharray:none;stroke-opacity:1" id="path2063"></path></g></g></g></g></svg>