<svg clip-rule="evenodd" fill-rule="evenodd" height="512" image-rendering="optimizeQuality" shape-rendering="geometricPrecision" text-rendering="geometricPrecision" viewBox="0 0 4335 4335" width="512" xmlns="http://www.w3.org/2000/svg"><g id="Layer_x0020_1"><path d="m1064 3018 73-273c-137-106-225-273-225-460v-351c-34-243 49-441 234-560 206-132 493-132 699 0 185 119 268 317 234 560v351c0 187-88 354-225 460l74 273h168c362 0 658 296 658 658v543h1465v-3427h-4103v3427h121v-543c0-362 296-658 658-658zm1632 1316h-2638c-31 0-57-26-57-58v-4218c0-31 26-57 57-57h4218c32 0 58 26 58 57v4218c0 32-26 58-58 58zm1523-3657v-561h-4103v561zm-298 612h-913c-76 0-76-115 0-115h913c76 0 76 115 0 115zm0 364h-1463c-76 0-76-115 0-115h1463c76 0 76 115 0 115zm0 364h-1463c-76 0-76-115 0-115h1463c76 0 76 115 0 115zm0 364h-1463c-76 0-76-115 0-115h1463c76 0 76 115 0 115zm0 364h-1463c-76 0-76-115 0-115h1463c76 0 76 115 0 115zm0 364h-913c-76 0-76-115 0-115h913c76 0 76 115 0 115zm0 364h-913c-76 0-76-115 0-115h913c76 0 76 115 0 115zm0 364h-913c-76 0-76-115 0-115h913c76 0 76 115 0 115zm-2102-778-67-249c-161 79-352 79-513 0l-67 249 324 323zm-1466 1160h356v-619c0-76 115-76 115 0v619h1343v-619c0-76 115-76 115 0v619h356v-543c0-299-243-542-542-542h-189l-371 371c-22 22-59 22-81 0l-371-371h-189c-299 0-542 243-542 542zm877-1548c3 2 7 4 10 7 73 48 161 76 256 76 258 0 468-210 468-469v-210c-10-144-117-227-313-239-45 55-160 165-342 129-2 0-4-1-6-1-21-7-209-55-276 121v200c0 160 80 301 203 386zm-206-772c100-75 232-69 310-47 155 30 239-104 240-106 11-17 30-28 51-27 172 5 279 53 346 115 1-612-1020-592-947 65zm-322-1445h-291c-76 0-76-115 0-115h291c76 0 76 115 0 115zm523 0h-292c-76 0-76-115 0-115h292c75 0 75 115 0 115zm522 0h-291c-76 0-76-115 0-115h291c76 0 76 115 0 115zm2177 0h-1575c-76 0-76-115 0-115h1575c76 0 76 115 0 115z" fill="#333"/><path d="m1024 1899c100-75 232-69 310-47 155 30 239-104 240-106 11-17 30-28 51-27 172 5 279 53 346 115 1-612-1020-592-947 65z" fill="#58535a"/><path d="m1303 1964c-21-7-209-55-276 121v200c0 160 80 301 203 386 3 2 7 4 10 7 73 48 161 76 256 76 258 0 468-210 468-469v-210c-10-144-117-227-313-239-45 55-160 165-342 129-2 0-4-1-6-1z" fill="#ff9e5c"/><path d="m1752 2810c-161 79-352 79-513 0l-67 249 324 323 323-323z" fill="#ff9e5c"/><path d="m1455 3505-371-371h-189c-299 0-542 243-542 542v543h356v-619c0-76 115-76 115 0v619h1343v-619c0-76 115-76 115 0v619h356v-543c0-299-243-542-542-542h-189l-371 371c-22 22-59 22-81 0z" fill="#7dd63e"/><path d="m895 3018h169l73-273c-137-106-225-273-225-460v-351c-34-243 49-441 234-560 206-132 493-132 699 0 185 119 268 317 234 560v351c0 187-88 354-225 460l74 273h168c362 0 658 296 658 658v543h1465v-3427h-4103v3427h121v-543c0-362 296-658 658-658zm3026-1365h-1463c-76 0-76-115 0-115h1463c76 0 76 115 0 115zm0-364h-913c-76 0-76-115 0-115h913c76 0 76 115 0 115zm0 728h-1463c-76 0-76-115 0-115h1463c76 0 76 115 0 115zm0 364h-1463c-76 0-76-115 0-115h1463c76 0 76 115 0 115zm-1463 364c-76 0-76-115 0-115h1463c76 0 76 115 0 115zm550 364c-76 0-76-115 0-115h913c76 0 76 115 0 115zm0 249h913c76 0 76 115 0 115h-913c-76 0-76-115 0-115zm0 364h913c76 0 76 115 0 115h-913c-76 0-76-115 0-115z" fill="#ffe4af"/><path d="m116 677h4103v-561h-4103zm586-223h-291c-76 0-76-115 0-115h291c76 0 76 115 0 115zm523 0h-292c-76 0-76-115 0-115h292c75 0 75 115 0 115zm522 0h-291c-76 0-76-115 0-115h291c76 0 76 115 0 115zm2177 0h-1575c-76 0-76-115 0-115h1575c76 0 76 115 0 115z" fill="#ff3131"/></g></svg>