<svg height="512" viewBox="0 0 512 512" width="512" xmlns="http://www.w3.org/2000/svg"><g id="Filled_outline" data-name="Filled outline"><path d="m248 360h176v32h-176z" fill="#375e8d"/><path d="m376 184h-32l80 240h32z" fill="#375e8d"/><circle cx="336" cy="176" fill="#f99e0c" r="152"/><circle cx="336" cy="176" fill="#ffb431" r="112"/><circle cx="336" cy="176" fill="#f99e0c" r="72"/><circle cx="336" cy="176" fill="#ffb431" r="32"/><path d="m128 176h-56l-16-32h56z" fill="#446d9b"/><path d="m112 208h-56l16-32h56z" fill="#375e8d"/><path d="m128 368h32v56h-32z" fill="#78a732"/><path d="m129.167 488h-37.167a12 12 0 0 1 -12-12v-116h48v87.279a14.11 14.11 0 0 0 7.8 12.621 14.834 14.834 0 0 1 8.2 13.267 14.833 14.833 0 0 1 -14.833 14.833z" fill="#86b63b"/><path d="m256 432-10.745-5.861a345.109 345.109 0 0 0 -165.255-42.139v-96a345.109 345.109 0 0 0 165.255-42.139l10.745-5.861z" fill="#dfdfdd"/><rect fill="#86b63b" height="240" rx="16" width="32" x="256" y="216"/><path d="m56 384h24v-96h-24a32 32 0 0 0 -32 32v32a32 32 0 0 0 32 32z" fill="#86b63b"/><path d="m496 176c0-88.225-71.775-160-160-160a159.517 159.517 0 0 0 -108.171 42.107l10.822 11.786a143.555 143.555 0 0 1 97.349-37.893c79.4 0 144 64.6 144 144a143.3 143.3 0 0 1 -67.885 122.263c-.062.039-.125.078-.185.119a143.315 143.315 0 0 1 -75.93 21.618 145.853 145.853 0 0 1 -22.748-1.791l-2.5 15.8a161.874 161.874 0 0 0 25.248 1.991 159.6 159.6 0 0 0 47.806-7.273l7.759 23.273h-79.565v16h84.9l5.334 16h-90.234v16h95.567l8.844 26.53a8 8 0 0 0 7.589 5.47h32a8 8 0 0 0 7.59-10.53l-37.7-113.1a159.112 159.112 0 0 0 70.11-132.37zm-51.1 240h-15.134l-30.94-92.81q6.651-2.841 13.038-6.3zm-108.9-344a104 104 0 1 1 -22.291 205.6l-3.418 15.631a120.012 120.012 0 1 0 -94.018-125.231h-24.044a143.526 143.526 0 0 1 37.665-89.355l-11.788-10.821a159.5 159.5 0 0 0 -41.906 100.176h-43.256l-13.789-27.578a8 8 0 0 0 -7.155-4.422h-56a8 8 0 0 0 -7.155 11.578l14.211 28.422-14.211 28.422a8 8 0 0 0 7.155 11.578h56a8 8 0 0 0 7.155-4.422l13.789-27.578h43.263a157.982 157.982 0 0 0 16.64 63.549l14.306-7.164a142.143 142.143 0 0 1 -14.933-56.385h24.05a118.657 118.657 0 0 0 11.284 43.432l14.453-6.864a102.782 102.782 0 0 1 -9.7-36.568h24.107a79.669 79.669 0 0 0 4.143 18.661l15.088-5.322a63.776 63.776 0 0 1 -3.145-13.339h24.306a40 40 0 1 0 0-16h-24.288a63.961 63.961 0 1 1 42.162 68.352l-5.36 15.076a80 80 0 1 0 -52.92-83.428h-24.1a104.139 104.139 0 0 1 103.7-96zm-228.944 128h-38.112l8-16h38.112zm-30.112-32-8-16h38.112l8 16zm236.432 0a24 24 0 1 1 0 16h22.624v-16zm-102.664 137.112-5.424-15.052c5.234-1.886 10.5-3.92 15.661-6.048l6.1 14.791c-5.38 2.219-10.877 4.343-16.337 6.309zm-98.029 21.488-1.366-15.942a371.191 371.191 0 0 0 78.309-15.346l4.748 15.279a387.285 387.285 0 0 1 -81.691 16.009zm159.317-118.6a24.028 24.028 0 0 0 -24 24v3.251l-6.576 3.587a338.076 338.076 0 0 1 -161.424 41.162h-24a40.033 40.033 0 0 0 -30 13.54l12 10.588a24.025 24.025 0 0 1 18-8.128h16v80h-16a24.028 24.028 0 0 1 -24-24v-32a24.184 24.184 0 0 1 .655-5.6l-15.562-3.716a40.113 40.113 0 0 0 -1.093 9.316v32a40.045 40.045 0 0 0 40 40h16v84a20.023 20.023 0 0 0 20 20h37.17a22.831 22.831 0 0 0 10.208-43.255 6.077 6.077 0 0 1 -3.378-5.465v-15.28h24a8 8 0 0 0 8-8v-20.276a337.109 337.109 0 0 1 73.424 29.438l6.576 3.588v3.25a24 24 0 0 0 48 0v-208a24.028 24.028 0 0 0 -24-24zm-137.985 269.992a6.825 6.825 0 0 1 -4.845 2.008h-37.17a4 4 0 0 1 -4-4v-83.894q16.059.385 32 2.3v52.874a21.993 21.993 0 0 0 12.224 19.777 6.808 6.808 0 0 1 3.776 6.113 6.806 6.806 0 0 1 -1.985 4.822zm17.985-61.992h-16v-19.282q8.037 1.357 16 3.1zm96 2.525a354.256 354.256 0 0 0 -160-42.433v-80.184a354.256 354.256 0 0 0 160-42.433zm32 21.475a8 8 0 0 1 -16 0v-208a8 8 0 0 1 16 0z"/></g></svg>